<mxfile host="app.diagrams.net" agent="Mozilla/5.0 (Windows NT 10.0; Win64; x64) AppleWebKit/537.36 (KHTML, like Gecko) Chrome/136.0.0.0 Safari/537.36" version="27.0.3">
  <diagram name="Arquitectura IV Smile" id="serverless-iv-smile">
    <mxGraphModel dx="1847" dy="523" grid="1" gridSize="10" guides="1" tooltips="1" connect="1" arrows="1" fold="1" page="1" pageScale="1" pageWidth="827" pageHeight="1169" math="0" shadow="0">
      <root>
        <mxCell id="dYcgU3trlpGekcUiiQ8A-0" />
        <mxCell id="dYcgU3trlpGekcUiiQ8A-1" parent="dYcgU3trlpGekcUiiQ8A-0" />
        <mxCell id="oBjmvA904hHeBTvKWmb4-0" value="App Streamlit\nhttps://andresiguaz.streamlit.app/" style="shape=mxgraph.logo.streamlit;whiteSpace=wrap;html=1;" vertex="1" parent="dYcgU3trlpGekcUiiQ8A-1">
          <mxGeometry x="30" y="30" width="120" height="60" as="geometry" />
        </mxCell>
        <mxCell id="oBjmvA904hHeBTvKWmb4-1" value="API Gateway\nhttps://cyw9gfj3pf.execute-api.us-east-1.amazonaws.com/dev/" style="shape=mxgraph.aws4.api_gateway;whiteSpace=wrap;html=1;" vertex="1" parent="dYcgU3trlpGekcUiiQ8A-1">
          <mxGeometry x="30" y="125" width="120" height="50" as="geometry" />
        </mxCell>
        <mxCell id="oBjmvA904hHeBTvKWmb4-2" value="Lambda API Embudo" style="shape=mxgraph.aws4.lambda;whiteSpace=wrap;html=1;" vertex="1" parent="dYcgU3trlpGekcUiiQ8A-1">
          <mxGeometry x="400" y="120" width="120" height="60" as="geometry" />
        </mxCell>
        <mxCell id="oBjmvA904hHeBTvKWmb4-3" value="Lambda Scraper Opciones" style="shape=mxgraph.aws4.lambda;whiteSpace=wrap;html=1;" vertex="1" parent="dYcgU3trlpGekcUiiQ8A-1">
          <mxGeometry x="400" y="40" width="120" height="60" as="geometry" />
        </mxCell>
        <mxCell id="oBjmvA904hHeBTvKWmb4-4" value="Lambda Scraper Futuros" style="shape=mxgraph.aws4.lambda;whiteSpace=wrap;html=1;" vertex="1" parent="dYcgU3trlpGekcUiiQ8A-1">
          <mxGeometry x="400" y="200" width="120" height="60" as="geometry" />
        </mxCell>
        <mxCell id="oBjmvA904hHeBTvKWmb4-5" value="Lambda IV Calc" style="shape=mxgraph.aws4.lambda;whiteSpace=wrap;html=1;" vertex="1" parent="dYcgU3trlpGekcUiiQ8A-1">
          <mxGeometry x="600" y="120" width="120" height="60" as="geometry" />
        </mxCell>
        <mxCell id="oBjmvA904hHeBTvKWmb4-6" value="DynamoDB\nOpciones/Futuros/IV" style="shape=mxgraph.aws4.dynamodb;whiteSpace=wrap;html=1;" vertex="1" parent="dYcgU3trlpGekcUiiQ8A-1">
          <mxGeometry x="770" y="120" width="120" height="60" as="geometry" />
        </mxCell>
        <mxCell id="oBjmvA904hHeBTvKWmb4-7" value="EventBridge\nTriggers diarios" style="shape=mxgraph.aws4.eventbridge;whiteSpace=wrap;html=1;" vertex="1" parent="dYcgU3trlpGekcUiiQ8A-1">
          <mxGeometry x="600" y="20" width="120" height="60" as="geometry" />
        </mxCell>
        <mxCell id="oBjmvA904hHeBTvKWmb4-8" style="edgeStyle=orthogonalEdgeStyle;endArrow=block;html=1;" edge="1" parent="dYcgU3trlpGekcUiiQ8A-1" source="oBjmvA904hHeBTvKWmb4-0" target="oBjmvA904hHeBTvKWmb4-1">
          <mxGeometry relative="1" as="geometry" />
        </mxCell>
        <mxCell id="oBjmvA904hHeBTvKWmb4-9" style="edgeStyle=orthogonalEdgeStyle;endArrow=block;html=1;" edge="1" parent="dYcgU3trlpGekcUiiQ8A-1" source="oBjmvA904hHeBTvKWmb4-1" target="oBjmvA904hHeBTvKWmb4-2">
          <mxGeometry relative="1" as="geometry" />
        </mxCell>
        <mxCell id="oBjmvA904hHeBTvKWmb4-10" style="edgeStyle=orthogonalEdgeStyle;endArrow=block;html=1;" edge="1" parent="dYcgU3trlpGekcUiiQ8A-1" source="oBjmvA904hHeBTvKWmb4-2" target="oBjmvA904hHeBTvKWmb4-6">
          <mxGeometry relative="1" as="geometry" />
        </mxCell>
        <mxCell id="oBjmvA904hHeBTvKWmb4-11" style="edgeStyle=orthogonalEdgeStyle;endArrow=block;html=1;" edge="1" parent="dYcgU3trlpGekcUiiQ8A-1" source="oBjmvA904hHeBTvKWmb4-7" target="oBjmvA904hHeBTvKWmb4-3">
          <mxGeometry relative="1" as="geometry" />
        </mxCell>
        <mxCell id="oBjmvA904hHeBTvKWmb4-12" style="edgeStyle=orthogonalEdgeStyle;endArrow=block;html=1;" edge="1" parent="dYcgU3trlpGekcUiiQ8A-1" source="oBjmvA904hHeBTvKWmb4-7" target="oBjmvA904hHeBTvKWmb4-4">
          <mxGeometry relative="1" as="geometry" />
        </mxCell>
        <mxCell id="oBjmvA904hHeBTvKWmb4-13" style="edgeStyle=orthogonalEdgeStyle;endArrow=block;html=1;" edge="1" parent="dYcgU3trlpGekcUiiQ8A-1" source="oBjmvA904hHeBTvKWmb4-7" target="oBjmvA904hHeBTvKWmb4-5">
          <mxGeometry relative="1" as="geometry" />
        </mxCell>
        <mxCell id="oBjmvA904hHeBTvKWmb4-14" style="edgeStyle=orthogonalEdgeStyle;endArrow=block;html=1;" edge="1" parent="dYcgU3trlpGekcUiiQ8A-1" source="oBjmvA904hHeBTvKWmb4-3" target="oBjmvA904hHeBTvKWmb4-6">
          <mxGeometry relative="1" as="geometry" />
        </mxCell>
        <mxCell id="oBjmvA904hHeBTvKWmb4-15" style="edgeStyle=orthogonalEdgeStyle;endArrow=block;html=1;" edge="1" parent="dYcgU3trlpGekcUiiQ8A-1" source="oBjmvA904hHeBTvKWmb4-4" target="oBjmvA904hHeBTvKWmb4-6">
          <mxGeometry relative="1" as="geometry" />
        </mxCell>
        <mxCell id="oBjmvA904hHeBTvKWmb4-16" style="edgeStyle=orthogonalEdgeStyle;endArrow=block;html=1;" edge="1" parent="dYcgU3trlpGekcUiiQ8A-1" source="oBjmvA904hHeBTvKWmb4-5" target="oBjmvA904hHeBTvKWmb4-6">
          <mxGeometry relative="1" as="geometry" />
        </mxCell>
      </root>
    </mxGraphModel>
  </diagram>
</mxfile>
